<?xml version="1.0" encoding="UTF-8"?>
<svg id="Calque_1_-_copie" xmlns="http://www.w3.org/2000/svg" version="1.1" viewBox="0 0 160 160">
  <!-- Generator: Adobe Illustrator 30.0.0, SVG Export Plug-In . SVG Version: 2.1.1 Build 123)  -->
  <defs>
    <style>
      .st0 {
        fill: #fff;
      }
    </style>
  </defs>
  <path class="st0" d="M261.75,87.8c1.06,1.06.84,3.53.51,4.87-.35,1.45-1.35,2.67-1.46,4.13,3.36-.31,6.32-2.14,9.38-3.42,2.36-.99,7.03-3.24,9.46-2.91s3.18,2.7,1.45,4.49c-.39.41-.99.78-1.49,1.06-1.88,1.06-4.07,1.77-6,2.77l-.23.55c.1.1,1.8-.43,2.09-.52,2.16-.69,6.23-2.87,8.36-1.65,1.01.58,1.19,1.5.94,2.6-.64,2.8-7.02,4.11-9.22,5.49-.96.6-1.09,1.15.27.98,2.23-.28,4.89-1.76,7.24-1.95,1.14-.09,3.41-.17,3.62,1.34.29,2.09-2.08,3-3.69,3.54-2.39.81-4.93,1.21-7.35,1.91-.03.37-.02.23.21.28,2.88.53,6.89-1.73,9.17-.11,1.28.91.59,2.39-.48,3.15-1.71,1.21-4.6,1.21-6.5,1.99-.42.17-.51.36-.64.77-.33,1.09-.33,2.64-.67,3.86-.64,2.29-1.96,5.64-3.3,7.59-2.62,3.8-9.17,6.52-13.6,7.33-12.7,2.31-25.66,1.1-38.25-1.13-7.3-1.3-15.86-2.56-21.68-7.46-1-.84-1.45-1.66-2.26-2.54-2.18-2.38-6.7-6.12-7.58-9.25-.53-1.88.5-3.04,2.37-2.37,2.7.97,4.35,4.37,6.48,6.11.16.13.23.34.49.28.49-.53-2.41-3.37-2.82-3.89-.49-.61-.94-1.37-1.42-1.98-1.85-2.38-5.55-6.38-4.13-9.64.48-1.11,1.26-1.23,2.23-1.74-.26-1.52-.7-3.55,1.01-4.35,1.43-.67,3.26.99,4.22,1.94,1.97,1.97,3.25,4.74,5.44,6.51.24-.31-1.75-3.42-2.03-3.98-.57-1.13-2.17-4.24-2.31-5.32-.33-2.41.93-3.99,3.39-2.97,3.05,1.26,4.85,7.17,6.67,9.88.34.51,2.71,3.4,3.13,3.37.16,0,.22-.31.21-.48-.02-.44-.42-1.34-.52-1.89-.41-2.24-1.35-8.21,1.9-8.77,3.69-.63,4.02,3.97,4.77,6.47s1.41,5.03,2.23,7.38c.5,1.42,1.01,3.2,2.23,4.13,4.53,3.44,11.75,3.39,17.17,3.76,8.25.55,18.4,1.39,26.31-1.27.7-.23,1.32-.64,2.08-.89,3.26-1.06,7.6-.95,11.05-1.54,1.06-.18,3.64-.52,3.62-1.82-.3-.44-4.63.38-5.44.42-.89.04-2.05.06-2.9-.21-1.63-.53-1.98-2.09-.36-2.9,2.55-1.27,6.77-1.34,9.23-2.92,1.05-.68.19-1.46-.99-1.28-3.06.47-6.05,2.4-9.5,1.93-.99-.13-1.31-.55-1.01-1.55.37-1.23,1.64-2.21,2.73-2.78,1.76-.92,6.19-2.01,7.08-3.67.53-.99-.59-.8-1.26-.69-2.89.46-8.02,3.84-10.89,2.14-.59-.35-.72-.77-.4-1.4,1.53-3.02,6.66-3.7,9.06-6.04.24-.23.5-.35.41-.75-.14-.51-1.74.05-2.1.16-4.98,1.47-12.36,6.41-17.49,5.68-.54-.08-1.27-.41-1.21-1.04.03-.34.31-.5.38-.76.41-1.49.94-3.56,1.16-5.06.05-.36.32-2.18-.2-2.18-.48.46-.95,1.11-1.28,1.69-1.58,2.77-3.05,6.2-4.48,9.1-.53,1.08-.21,1.49-1.54,2.28-2.09,1.25-6.82,2.33-9.25,2.49-5.13.33-12.18-.44-17.21-1.6-.83-.19-2.84-.57-2.94-1.6-.04-.37.11-.78.46-.94.75-.35,2.8.43,3.73.59,7.47,1.23,17.6,2.54,24.58-.99,1-.51.89-1.73,1.25-2.71.84-2.28,3.6-8.32,5.27-9.87.9-.84,2.04-1.19,3-.23ZM214.8,108.93c-1.1,1.35-3.31-.12-4.28-.95-3.31-2.83-4.4-6.94-6.94-10.18-.28-.36-1.98-2.29-2.18-1.21-.34,1.79,1.66,4.32,2.48,5.86.49.93,2.42,4.36,2.55,5.09s-.13,2.01-1.02,2.12c-1.41.18-3.87-2.51-4.8-3.53-1.4-1.54-2.55-3.33-3.89-4.88-.39-.45-.99-1.17-1.59-1.19-.8.2.04,2,.3,2.48,1.93,3.64,5.94,6.96,8.06,10.6.26.45.34.64.15,1.16-.64.57-2.73-1.5-3.17-1.96-2.23-2.34-3.81-5.25-5.79-7.79-.73-.28-1.89.18-1.93,1.07-.05,1.27,1.86,4.19,2.64,5.29,1.61,2.3,5.76,5.87,5.85,8.59.02.54-.3,1.62-.83,1.82-1.37.51-2.43-.43-3.41-1.28-1.69-1.46-2.96-3.54-4.88-4.74-.29.21-.21.25-.1.52.13.33,1.15,1.58,1.45,1.95,2.22,2.73,4.77,5.12,7.21,7.64,3.2,3.3,7.64,5.17,12.13,6.26,5,1.21,10.33,1.23,15.36,2.18,1,.19,1.91.65,2.86.82,3.42.62,7.65.5,11.17.57,9.63.2,26.2.45,31.3-9.56.81-1.58,2.14-6.18,2.27-7.92.02-.26.1-.63-.22-.74s-2.35.07-2.79.14c-4.35.68-7.84,2.81-12.61,3.23-9.13.8-21.19.26-30.23-1.31-2.08-.36-7.02-1.61-8.09-3.51-2.81-5.02-3.42-10.46-5.43-15.64-.35-.9-1.39-2.68-2.27-1.22-.99,1.64-.02,3.43.25,5.08.19,1.19.54,3.1.58,4.23.01.29,0,.64-.19.87Z"/>
  <path d="M103.42,55.59c1.06,1.06.84,3.53.51,4.87-.35,1.45-1.35,2.67-1.46,4.13,3.36-.31,6.32-2.14,9.38-3.42,2.36-.99,7.03-3.24,9.46-2.91s3.18,2.7,1.45,4.49c-.39.41-.99.78-1.49,1.06-1.88,1.06-4.07,1.77-6,2.77l-.23.55c.1.1,1.8-.43,2.09-.52,2.16-.69,6.23-2.87,8.36-1.65,1.01.58,1.19,1.5.94,2.6-.64,2.8-7.02,4.11-9.22,5.49-.96.6-1.09,1.15.27.98,2.23-.28,4.89-1.76,7.24-1.95,1.14-.09,3.41-.17,3.62,1.34.29,2.09-2.08,3-3.69,3.54-2.39.81-4.93,1.21-7.35,1.91-.03.37-.02.23.21.28,2.88.53,6.89-1.73,9.17-.11,1.28.91.59,2.39-.48,3.15-1.71,1.21-4.6,1.21-6.5,1.99-.42.17-.51.36-.64.77-.33,1.09-.33,2.64-.67,3.86-.64,2.29-1.96,5.64-3.3,7.59-2.62,3.8-9.17,6.52-13.6,7.33-12.7,2.31-25.66,1.1-38.25-1.13-7.3-1.3-15.86-2.56-21.68-7.46-1-.84-1.45-1.66-2.26-2.54-2.18-2.38-6.7-6.12-7.58-9.25-.53-1.88.5-3.04,2.37-2.37,2.7.97,4.35,4.37,6.48,6.11.16.13.23.34.49.28.49-.53-2.41-3.37-2.82-3.89-.49-.61-.94-1.37-1.42-1.98-1.85-2.38-5.55-6.38-4.13-9.64.48-1.11,1.26-1.23,2.23-1.74-.26-1.52-.7-3.55,1.01-4.35,1.43-.67,3.26.99,4.22,1.94,1.97,1.97,3.25,4.74,5.44,6.51.24-.31-1.75-3.42-2.03-3.98-.57-1.13-2.17-4.24-2.31-5.32-.33-2.41.93-3.99,3.39-2.97,3.05,1.26,4.85,7.17,6.67,9.88.34.51,2.71,3.4,3.13,3.37.16,0,.22-.31.21-.48-.02-.44-.42-1.34-.52-1.89-.41-2.24-1.35-8.21,1.9-8.77,3.69-.63,4.02,3.97,4.77,6.47s1.41,5.03,2.23,7.38c.5,1.42,1.01,3.2,2.23,4.13,4.53,3.44,11.75,3.39,17.17,3.76,8.25.55,18.4,1.39,26.31-1.27.7-.23,1.32-.64,2.08-.89,3.26-1.06,7.6-.95,11.05-1.54,1.06-.18,3.64-.52,3.62-1.82-.3-.44-4.63.38-5.44.42-.89.04-2.05.06-2.9-.21-1.63-.53-1.98-2.09-.36-2.9,2.55-1.27,6.77-1.34,9.23-2.92,1.05-.68.19-1.46-.99-1.28-3.06.47-6.05,2.4-9.5,1.93-.99-.13-1.31-.55-1.01-1.55.37-1.23,1.64-2.21,2.73-2.78,1.76-.92,6.19-2.01,7.08-3.67.53-.99-.59-.8-1.26-.69-2.89.46-8.02,3.84-10.89,2.14-.59-.35-.72-.77-.4-1.4,1.53-3.02,6.66-3.7,9.06-6.04.24-.23.5-.35.41-.75-.14-.51-1.74.05-2.1.16-4.98,1.47-12.36,6.41-17.49,5.68-.54-.08-1.27-.41-1.21-1.04.03-.34.31-.5.38-.76.41-1.49.94-3.56,1.16-5.06.05-.36.32-2.18-.2-2.18-.48.46-.95,1.11-1.28,1.69-1.58,2.77-3.05,6.2-4.48,9.1-.53,1.08-.21,1.49-1.54,2.28-2.09,1.25-6.82,2.33-9.25,2.49-5.13.33-12.18-.44-17.21-1.6-.83-.19-2.84-.57-2.94-1.6-.04-.37.11-.78.46-.94.75-.35,2.8.43,3.73.59,7.47,1.23,17.6,2.54,24.58-.99,1-.51.89-1.73,1.25-2.71.84-2.28,3.6-8.32,5.27-9.87.9-.84,2.04-1.19,3-.23ZM56.47,76.72c-1.1,1.35-3.31-.12-4.28-.95-3.31-2.83-4.4-6.94-6.94-10.18-.28-.36-1.98-2.29-2.18-1.21-.34,1.79,1.66,4.32,2.48,5.86.49.93,2.42,4.36,2.55,5.09s-.13,2.01-1.02,2.12c-1.41.18-3.87-2.51-4.8-3.53-1.4-1.54-2.55-3.33-3.89-4.88-.39-.45-.99-1.17-1.59-1.19-.8.2.04,2,.3,2.48,1.93,3.64,5.94,6.96,8.06,10.6.26.45.34.64.15,1.16-.64.57-2.73-1.5-3.17-1.96-2.23-2.34-3.81-5.25-5.79-7.79-.73-.28-1.89.18-1.93,1.07-.05,1.27,1.86,4.19,2.64,5.29,1.61,2.3,5.76,5.87,5.85,8.59.02.54-.3,1.62-.83,1.82-1.37.51-2.43-.43-3.41-1.28-1.69-1.46-2.96-3.54-4.88-4.74-.29.21-.21.25-.1.52.13.33,1.15,1.58,1.45,1.95,2.22,2.73,4.77,5.12,7.21,7.64,3.2,3.3,7.64,5.17,12.13,6.26,5,1.21,10.33,1.23,15.36,2.18,1,.19,1.91.65,2.86.82,3.42.62,7.65.5,11.17.57,9.63.2,26.2.45,31.3-9.56.81-1.58,2.14-6.18,2.27-7.92.02-.26.1-.63-.22-.74s-2.35.07-2.79.14c-4.35.68-7.84,2.81-12.61,3.23-9.13.8-21.19.26-30.23-1.31-2.08-.36-7.02-1.61-8.09-3.51-2.81-5.02-3.42-10.46-5.43-15.64-.35-.9-1.39-2.68-2.27-1.22-.99,1.64-.02,3.43.25,5.08.19,1.19.54,3.1.58,4.23.01.29,0,.64-.19.87Z"/>
</svg>